<?xml version="1.0" encoding="UTF-8" standalone="no"?>
<svg
   xmlns:dc="http://purl.org/dc/elements/1.1/"
   xmlns:cc="http://creativecommons.org/ns#"
   xmlns:rdf="http://www.w3.org/1999/02/22-rdf-syntax-ns#"
   xmlns:svg="http://www.w3.org/2000/svg"
   xmlns="http://www.w3.org/2000/svg"
   xmlns:sodipodi="http://sodipodi.sourceforge.net/DTD/sodipodi-0.dtd"
   xmlns:inkscape="http://www.inkscape.org/namespaces/inkscape"
   viewBox="0 0 143 144"
   version="1.1"
   id="svg62"
   sodipodi:docname="cds.svg"
   inkscape:version="0.92.4 5da689c313, 2019-01-14"
   width="143"
   height="144">
  <metadata
     id="metadata68">
    <rdf:RDF>
      <cc:Work
         rdf:about="">
        <dc:format>image/svg+xml</dc:format>
        <dc:type
           rdf:resource="http://purl.org/dc/dcmitype/StillImage" />
        <dc:title>cds_logo</dc:title>
        <dc:title>cds_logo</dc:title>
      </cc:Work>
    </rdf:RDF>
  </metadata>
  <defs
     id="defs66" />
  <sodipodi:namedview
     pagecolor="#ffffff"
     bordercolor="#666666"
     borderopacity="1"
     objecttolerance="10"
     gridtolerance="10"
     guidetolerance="10"
     inkscape:pageopacity="0"
     inkscape:pageshadow="2"
     inkscape:window-width="1866"
     inkscape:window-height="1013"
     id="namedview64"
     showgrid="false"
     inkscape:zoom="1.6388889"
     inkscape:cx="6.1016949"
     inkscape:cy="72"
     inkscape:window-x="54"
     inkscape:window-y="30"
     inkscape:window-maximized="1"
     inkscape:current-layer="svg62" />
  <title
     id="title2">cds_logo</title>
  <rect
     width="144"
     height="144"
     style="fill:#030303;fill-opacity:1"
     id="rect4"
     x="0"
     y="0" />
  <path
     d="M 0,0 V 144 H 144 V 0 Z M 137.17,137.17 H 6.83 V 6.83 h 130.34 z"
     style="fill:#ffffff"
     id="path6"
     inkscape:connector-curvature="0" />
  <path
     d="m 54.58,72 v 0 a 3.51,3.51 0 0 1 -3.62,2.48 c -2.6,0 -4.09,-1.71 -4.09,-4.7 0,-2.83 1.51,-4.51 4,-4.51 1.94,0 3.16,0.82 3.62,2.44 v 0 l 2.28,-0.9 v 0 0 A 6.13,6.13 0 0 0 50.87,62.94 6.17,6.17 0 0 0 46,65 a 8.2,8.2 0 0 0 0,9.71 6.21,6.21 0 0 0 4.93,2.08 6.39,6.39 0 0 0 3.55,-1 6.29,6.29 0 0 0 2.34,-2.89 v 0 L 54.6,72 Z"
     style="fill:#ffffff"
     id="path8"
     inkscape:connector-curvature="0" />
  <path
     d="m 64.19,75.32 0.15,1.3 v 0 h 2 v -5.77 a 3.79,3.79 0 0 0 -4.13,-4 4.65,4.65 0 0 0 -4,2.09 v 0 l 1.8,1.3 v 0 0 a 2.55,2.55 0 0 1 2.17,-1.24 1.76,1.76 0 0 1 1.85,2 h -2.44 a 5.09,5.09 0 0 0 -2.7,0.6 2.39,2.39 0 0 0 -1.1,2.17 2.94,2.94 0 0 0 1,2.32 3.74,3.74 0 0 0 2.47,0.81 3.34,3.34 0 0 0 2.93,-1.58 z M 64,72.64 a 2.42,2.42 0 0 1 -2.45,2.18 c -0.86,0 -1.39,-0.4 -1.39,-1.05 0,-0.65 0.4,-1.13 1.52,-1.13 z"
     style="fill:#ffffff"
     id="path10"
     inkscape:connector-curvature="0" />
  <path
     d="m 70.87,71.42 c 0,-1.53 0.73,-2.34 2.12,-2.34 1.11,0 1.8,0.82 1.8,2.13 v 5.43 h 2.33 v -5.73 c 0,-1.94 -0.91,-4 -3.46,-4 a 3.67,3.67 0 0 0 -2.78,1.27 V 67.1 h -2.35 v 9.54 h 2.34 z"
     style="fill:#ffffff"
     id="path12"
     inkscape:connector-curvature="0" />
  <path
     d="m 79.49,71.53 a 2.39,2.39 0 0 0 -1.1,2.17 2.94,2.94 0 0 0 1,2.32 3.74,3.74 0 0 0 2.47,0.81 3.34,3.34 0 0 0 2.94,-1.51 l 0.15,1.3 v 0 h 2 v -5.77 a 3.79,3.79 0 0 0 -4.13,-4 4.65,4.65 0 0 0 -4,2.09 v 0 l 1.8,1.3 v 0 0 a 2.55,2.55 0 0 1 2.17,-1.24 1.76,1.76 0 0 1 1.85,2 h -2.45 a 5.09,5.09 0 0 0 -2.7,0.53 z m 2.83,1.11 h 2.32 a 2.42,2.42 0 0 1 -2.45,2.18 c -0.85,0 -1.39,-0.4 -1.39,-1.05 0,-0.65 0.4,-1.13 1.52,-1.13 z"
     style="fill:#ffffff"
     id="path14"
     inkscape:connector-curvature="0" />
  <path
     d="m 92.35,76.83 a 3.33,3.33 0 0 0 2.74,-1.22 l 0.1,1 v 0 h 2.2 V 63.16 H 95 V 68 a 3.44,3.44 0 0 0 -2.68,-1.11 3.69,3.69 0 0 0 -3,1.5 6.23,6.23 0 0 0 0,6.95 3.74,3.74 0 0 0 3.03,1.49 z m -1.74,-5 c 0,-1.77 0.86,-2.82 2.3,-2.82 1.44,0 2.28,1.06 2.28,2.82 0,1.76 -0.83,2.82 -2.28,2.82 -1.45,0 -2.29,-1.02 -2.29,-2.79 z"
     style="fill:#ffffff"
     id="path16"
     inkscape:connector-curvature="0" />
  <rect
     x="99.800003"
     y="67.099998"
     width="2.3399999"
     height="9.54"
     style="fill:#ffffff"
     id="rect18" />
  <rect
     x="99.739998"
     y="63.16"
     width="2.46"
     height="2.1800001"
     style="fill:#ffffff"
     id="rect20" />
  <path
     d="m 104.77,71.53 a 2.39,2.39 0 0 0 -1.1,2.17 2.94,2.94 0 0 0 1,2.32 3.74,3.74 0 0 0 2.47,0.81 3.34,3.34 0 0 0 2.94,-1.51 l 0.15,1.3 v 0 h 2 v -5.77 a 3.79,3.79 0 0 0 -4.13,-4 A 4.65,4.65 0 0 0 104,69 v 0 l 1.79,1.3 v 0 0 a 2.54,2.54 0 0 1 2.29,-1.3 1.76,1.76 0 0 1 1.85,2 h -2.45 a 5.09,5.09 0 0 0 -2.71,0.53 z m 2.84,1.11 h 2.32 a 2.42,2.42 0 0 1 -2.45,2.18 c -0.85,0 -1.39,-0.4 -1.39,-1.05 0,-0.65 0.4,-1.13 1.52,-1.13 z"
     style="fill:#ffffff"
     id="path22"
     inkscape:connector-curvature="0" />
  <path
     d="m 116.63,71.42 c 0,-1.53 0.73,-2.34 2.12,-2.34 1.11,0 1.79,0.82 1.79,2.13 v 5.43 h 2.33 v -5.73 c 0,-1.94 -0.91,-4 -3.46,-4 a 3.67,3.67 0 0 0 -2.78,1.27 V 67.1 h -2.34 v 9.54 h 2.34 z"
     style="fill:#ffffff"
     id="path24"
     inkscape:connector-curvature="0" />
  <path
     d="M 73.92,86.53 H 70 V 100 h 3.9 a 7.29,7.29 0 0 0 5.21,-1.75 6.47,6.47 0 0 0 1.82,-4.89 6.82,6.82 0 0 0 -1.79,-5.06 7.17,7.17 0 0 0 -5.22,-1.77 z m -1.46,2.26 h 1.42 a 4.81,4.81 0 0 1 3.53,1 4.56,4.56 0 0 1 1.06,3.43 c 0,3.06 -1.53,4.49 -4.81,4.49 h -1.2 z"
     style="fill:#ffffff"
     id="path26"
     inkscape:connector-curvature="0" />
  <rect
     x="82.660004"
     y="86.529999"
     width="2.46"
     height="2.1800001"
     style="fill:#ffffff"
     id="rect28" />
  <rect
     x="82.720001"
     y="90.459999"
     width="2.3399999"
     height="9.54"
     style="fill:#ffffff"
     id="rect30" />
  <path
     d="m 88.36,103.54 a 6.09,6.09 0 0 0 6.28,0.18 2.81,2.81 0 0 0 1.23,-2.41 c 0,-2.15 -1.84,-2.58 -3.72,-2.83 L 91.53,98.41 C 90.19,98.26 89.31,98.16 89.31,97.5 a 0.54,0.54 0 0 1 0.26,-0.48 4.49,4.49 0 0 0 1.81,0.37 4.18,4.18 0 0 0 2.72,-0.95 3.29,3.29 0 0 0 1.16,-2.55 3.36,3.36 0 0 0 -0.4,-1.65 l 1.37,-1.1 v 0 L 95,89.64 v 0 l -1.46,1.25 a 4.31,4.31 0 0 0 -2.24,-0.6 4.19,4.19 0 0 0 -2.75,1 3.31,3.31 0 0 0 -1.17,2.53 3.42,3.42 0 0 0 0.77,2.18 2.5,2.5 0 0 0 -0.88,2 2.12,2.12 0 0 0 0.92,1.88 l -1,0.88 v 0 a 1.81,1.81 0 0 0 0,0.41 3,3 0 0 0 1.17,2.37 z m 3.3,-0.9 c -1.43,0 -2.36,-0.55 -2.49,-1.48 l 0.47,-0.78 a 12.48,12.48 0 0 0 1.39,0.22 h 0.29 c 1.48,0.17 2.3,0.26 2.3,0.95 0,0.69 -0.73,1.09 -1.96,1.09 z M 89.81,93.8 a 1.53,1.53 0 0 1 1.56,-1.69 1.5,1.5 0 0 1 1.54,1.69 1.47,1.47 0 0 1 -1.54,1.65 1.49,1.49 0 0 1 -1.56,-1.66 z"
     style="fill:#ffffff"
     id="path32"
     inkscape:connector-curvature="0" />
  <rect
     x="97.699997"
     y="86.529999"
     width="2.46"
     height="2.1800001"
     style="fill:#ffffff"
     id="rect34" />
  <rect
     x="97.75"
     y="90.459999"
     width="2.3399999"
     height="9.54"
     style="fill:#ffffff"
     id="rect36" />
  <path
     d="m 107.93,99.91 v 0 -2.16 0 a 3.35,3.35 0 0 1 -1.31,0.34 c -0.71,0 -1.05,-0.38 -1.05,-1.16 v -4.48 h 2.4 v -2 h -2.4 v -4 l -2.3,1.68 v 0 2.35 h -1.57 v 2 h 1.53 v 4.91 a 2.77,2.77 0 0 0 0.8,2.07 3.13,3.13 0 0 0 2.21,0.76 5.52,5.52 0 0 0 1.69,-0.31 z"
     style="fill:#ffffff"
     id="path38"
     inkscape:connector-curvature="0" />
  <path
     d="m 109.5,92.36 v 0 l 1.8,1.3 v 0 0 a 2.54,2.54 0 0 1 2.22,-1.33 1.76,1.76 0 0 1 1.85,2 h -2.45 a 5.09,5.09 0 0 0 -2.7,0.6 2.39,2.39 0 0 0 -1.1,2.16 2.94,2.94 0 0 0 1,2.32 3.73,3.73 0 0 0 2.47,0.81 3.34,3.34 0 0 0 2.94,-1.51 l 0.15,1.3 v 0 h 2 v -5.79 a 3.79,3.79 0 0 0 -4.13,-4 4.66,4.66 0 0 0 -4.05,2.14 z m 3.56,3.64 h 2.32 a 2.42,2.42 0 0 1 -2.45,2.18 c -0.85,0 -1.39,-0.4 -1.39,-1.05 0,-0.65 0.4,-1.13 1.52,-1.13 z"
     style="fill:#ffffff"
     id="path40"
     inkscape:connector-curvature="0" />
  <path
     d="m 123.55,98 a 4.66,4.66 0 0 1 -0.63,0.06 c -0.49,0 -0.74,-0.21 -0.74,-0.62 V 86.53 h -2.36 v 11.56 c 0,1.44 0.64,2.1 2,2.1 a 10,10 0 0 0 1.73,-0.19 v 0 z"
     style="fill:#ffffff"
     id="path42"
     inkscape:connector-curvature="0" />
  <path
     d="m 67.87,115.36 c -1.37,-0.53 -2.56,-1 -2.56,-2.06 a 1.51,1.51 0 0 1 1.69,-1.41 2.4,2.4 0 0 1 2.15,1.42 v 0 l 2,-1.24 v 0 0 a 4.53,4.53 0 0 0 -4.11,-2.37 4.64,4.64 0 0 0 -3,1 3.45,3.45 0 0 0 -1.26,2.76 c 0,2.45 2,3.24 3.81,3.95 1.44,0.57 2.69,1.06 2.69,2.28 0,1 -0.86,1.69 -2.19,1.69 a 2.54,2.54 0 0 1 -2.76,-2.4 v 0 l -2.42,0.61 v 0 0 a 4.41,4.41 0 0 0 1.85,3 5.81,5.81 0 0 0 3.31,1 5.18,5.18 0 0 0 3.31,-1.09 3.77,3.77 0 0 0 1.38,-3 c 0.06,-2.62 -2.04,-3.43 -3.89,-4.14 z"
     style="fill:#ffffff"
     id="path44"
     inkscape:connector-curvature="0" />
  <path
     d="m 77.74,113.63 c -3.23,0 -4.68,2.51 -4.68,5 a 5.17,5.17 0 0 0 1.18,3.43 4.67,4.67 0 0 0 3.65,1.5 5,5 0 0 0 3.92,-1.72 v 0 l -1.61,-1.41 v 0 0 a 2.86,2.86 0 0 1 -2.27,1 2.17,2.17 0 0 1 -2.35,-2 h 6.52 a 3.74,3.74 0 0 0 0.09,-0.92 c -0.02,-2.28 -1.19,-4.88 -4.45,-4.88 z m 0,2 a 2,2 0 0 1 2.12,2 h -4.3 c 0.26,-1.34 0.97,-2.01 2.16,-2.01 z"
     style="fill:#ffffff"
     id="path46"
     inkscape:connector-curvature="0" />
  <path
     d="m 88.57,113.63 a 2.73,2.73 0 0 0 -2.53,1.7 v -1.5 h -2.3 v 9.54 H 86 v -4 a 4.33,4.33 0 0 1 0.7,-2.6 1.87,1.87 0 0 1 1.5,-0.8 1.83,1.83 0 0 1 1,0.32 v 0 l 1.07,-1.92 v 0 a 2.46,2.46 0 0 0 -1.7,-0.74 z"
     style="fill:#ffffff"
     id="path48"
     inkscape:connector-curvature="0" />
  <polygon
     points="93.18,113.83 90.6,113.83 94.48,123.36 94.49,123.37 96.43,123.37 100.31,113.86 100.32,113.83 97.76,113.83 95.46,120.29 93.18,113.85 "
     style="fill:#ffffff"
     id="polygon50" />
  <rect
     x="101.24"
     y="113.83"
     width="2.3399999"
     height="9.54"
     style="fill:#ffffff"
     id="rect52" />
  <rect
     x="101.18"
     y="109.9"
     width="2.46"
     height="2.1800001"
     style="fill:#ffffff"
     id="rect54" />
  <path
     d="m 109.73,113.63 a 4.31,4.31 0 0 0 -3.47,1.56 5.41,5.41 0 0 0 -1.13,3.43 5.33,5.33 0 0 0 1.14,3.42 4.36,4.36 0 0 0 3.48,1.53 4.11,4.11 0 0 0 4,-2.83 v 0 l -2.13,-0.81 v 0 0 a 1.94,1.94 0 0 1 -1.88,1.5 c -2,0 -2.2,-2.14 -2.2,-2.8 0,-1.31 0.58,-2.84 2.2,-2.84 a 1.94,1.94 0 0 1 1.88,1.54 v 0 l 2.23,-0.86 v 0 0 a 4.17,4.17 0 0 0 -4.12,-2.84 z"
     style="fill:#ffffff"
     id="path56"
     inkscape:connector-curvature="0" />
  <path
     d="m 119,113.63 c -3.23,0 -4.68,2.51 -4.68,5 a 5.17,5.17 0 0 0 1.18,3.43 4.67,4.67 0 0 0 3.65,1.5 5,5 0 0 0 3.91,-1.72 v 0 l -1.61,-1.41 v 0 0 a 2.85,2.85 0 0 1 -2.27,1 2.17,2.17 0 0 1 -2.35,-2 h 6.52 a 3.79,3.79 0 0 0 0.09,-0.92 c -0.01,-2.28 -1.17,-4.88 -4.44,-4.88 z m 0,2 a 2,2 0 0 1 2.12,2 h -4.28 c 0.24,-1.34 0.95,-2.01 2.16,-2.01 z"
     style="fill:#ffffff"
     id="path58"
     inkscape:connector-curvature="0" />
  <path
     d="m 115.18,40.62 c 0,0 -0.21,-3.95 -0.21,-4.39 0,-0.44 0.36,-0.45 0.75,-0.32 0.39,0.13 4.06,0.76 4.06,0.75 0,-0.01 -0.27,-0.79 -0.53,-1.39 -0.26,-0.6 0.13,-0.65 0.21,-0.75 0.08,-0.1 4.15,-3.6 4.17,-3.64 l -0.64,-0.32 c -0.4,-0.18 -0.35,-0.49 -0.32,-0.75 0.03,-0.26 0.77,-2.51 0.75,-2.46 -0.02,0.05 -1.72,0.36 -2.14,0.43 -0.42,0.07 -0.43,-0.12 -0.54,-0.32 -0.11,-0.2 -0.47,-1.22 -0.43,-1.18 0.04,0.04 -2.18,2.27 -2.25,2.35 -0.38,0.32 -0.78,0.05 -0.64,-0.43 0,-0.37 1,-5 1.07,-5 0.07,0 -1.17,0.7 -1.5,1 -0.33,0.3 -0.61,0.13 -0.75,-0.21 -0.14,-0.34 -1.64,-3.13 -1.6,-3.1 0.04,0.03 -1.37,2.74 -1.6,3.1 -0.23,0.36 -0.39,0.39 -0.75,0.21 -0.36,-0.18 -1.47,-0.94 -1.5,-1 -0.03,-0.06 1,4.66 1.07,5 0.07,0.34 -0.29,0.75 -0.64,0.43 -0.09,-0.08 -2.23,-2.4 -2.25,-2.35 a 12.49,12.49 0 0 0 -0.43,1.18 c -0.13,0.2 -0.27,0.38 -0.54,0.32 -0.45,-0.07 -2.23,-0.47 -2.25,-0.43 -0.02,0.04 0.73,2.27 0.75,2.46 0.02,0.19 0.16,0.57 -0.21,0.75 l -0.64,0.32 c 0,0 4,3.47 4.07,3.64 0.07,0.17 0.43,0.19 0.21,0.75 -0.22,0.56 -0.45,1.4 -0.43,1.39 0.02,-0.01 3.67,-0.7 4.07,-0.75 0.4,-0.05 0.72,0 0.75,0.32 0.03,0.32 -0.21,4.4 -0.21,4.39 z"
     style="fill:#ffffff"
     id="path60"
     inkscape:connector-curvature="0" />
</svg>
